<?xml version="1.0" encoding="utf-8"?>
<!-- Generator: Adobe Illustrator 25.0.1, SVG Export Plug-In . SVG Version: 6.00 Build 0)  -->
<svg version="1.1" id="Layer_1" xmlns="http://www.w3.org/2000/svg" xmlns:xlink="http://www.w3.org/1999/xlink" x="0px" y="0px"
	 viewBox="0 0 150 52" style="enable-background:new 0 0 150 52;" xml:space="preserve">
<style type="text/css">
	.st0{fill:#EB1D25;}
</style>
<path class="st0" d="M122.5,51h12V15.4h-12V51z M111.9,28.3c-4.8-0.3-5.8-0.2-7.7-0.2c-1.8,0-2.1-3.5,0.3-3.5c2.2,0,14.3,0,14.3,0
	v-9.1c0,0-14.1,0-17.8,0c-3.7,0-7.8,1.7-9.8,5.9c0-3.4,0-5.9,0-5.9s-7.7,0-11.7,0c-4.7,0-8.4,2.9-8.4,9c0,6,0,26.3,0,26.3H83
	c0,0,0-18.3,0-21.5c0-3.2,1.4-3.7,2.9-3.7c1.5,0,4.4,0,4.4,0c-0.1,4.5,1,8.5,5.1,10.5c4.2,2,7.7,1.3,11,1.3c2.7,0,2.4,1.7,2.4,2.1
	c0,0.4-0.2,1.6-2.1,1.6c-1.8,0-15.8,0-15.8,0v9.8c0,0,8.1,0,17.9,0c9,0,11.9-7.1,11.9-12.2C120.8,35,119.2,29.3,111.9,28.3z
	 M128.5,0c-3.6,0-6.5,2.9-6.5,6.5c0,3.6,2.9,6.5,6.5,6.5c3.6,0,6.5-2.9,6.5-6.5C135,2.9,132.1,0,128.5,0z M137.5,51h12V4.4h-12V51z
	 M65.1,19.6c-8.2-8.4-22.8-5.6-27.6,1.1c0-11.2-8.5-16-14.8-16H0.5L0.7,51H14V37.5h5c2.5,0,10,0.2,14.2-5.1
	c0.4,14.4,8.5,18.2,15,19.4c11.9,1,17.4-3.9,19.9-8.6c0,0-8.3-2.7-11-3.4c-0.8,1.5-2.2,3.5-5.8,3.5c-3.6,0-5.5-3.6-5.5-6.3h23.9
	C69.8,27.9,68.4,23.7,65.1,19.6z M18.4,27.8H14V14.5c0,0,1.1-0.1,4.5-0.1c3.4,0,5.9,1.8,5.9,6.8C24.4,26.1,20.6,27.8,18.4,27.8z
	 M45.8,29.6c0-8.5,11.9-8.8,11.9,0L45.8,29.6z"/>
</svg>
